# xmcd
#
# Track frame offsets: 
#        150
#        14016
#        24589
#        37351
#        52257
#        60884
#        77877
#        85415
#        99012
#        117508
#        131729
#        143773
#        164156
#        180416
#        202358
#        222886
#
# Disc length: 3215 seconds
#
# Revision: 0
# Processed by: cddbd v1.5PL3 Copyright (c) Steve Scherf et al.
# Submitted via: ExactAudioCopy v0.95a5
#
DISCID=f00c8d10
DTITLE=Front Range Live - The Real Thing
DYEAR=2003
DGENRE=Bluegrass
TTITLE0=Waiting Ror The Real Thing
TTITLE1=Hot Grounds To Go
TTITLE2=I Don't Want To Spoil The Party
TTITLE3=Without You
TTITLE4=Intro To Plains Of The Buffalo
TTITLE5=Plains Of The Buffalo
TTITLE6=Building On A Rock
TTITLE7=Nightime Blues
TTITLE8=Take This Hammer
TTITLE9=Sunny Side Of Life
TTITLE10=Hello Trouble
TTITLE11=Willoughby Gap
TTITLE12=Shady River
TTITLE13=Hot Rod Lincoln
TTITLE14=The Road Home
TTITLE15=Muleskinner Blues
EXTD=
EXTT0=
EXTT1=
EXTT2=
EXTT3=
EXTT4=
EXTT5=
EXTT6=
EXTT7=
EXTT8=
EXTT9=
EXTT10=
EXTT11=
EXTT12=
EXTT13=
EXTT14=
EXTT15=
PLAYORDER=
